<svg width="24" height="24" viewBox="0 0 24 24" fill="none" xmlns="http://www.w3.org/2000/svg">
<path fill-rule="evenodd" clip-rule="evenodd" d="M4 1.25C2.48122 1.25 1.25 2.48122 1.25 4V19C1.25 20.5188 2.48122 21.75 4 21.75H15.8849C15.3593 21.0159 14.598 20.4163 13.7455 20.08C12.0848 19.4251 12.0848 17.0749 13.7455 16.42C14.902 15.9638 15.9638 14.902 16.42 13.7455C17.0749 12.0848 19.4251 12.0848 20.08 13.7455C20.245 14.1638 20.4734 14.5602 20.75 14.9175V4C20.75 2.48122 19.5188 1.25 18 1.25H4ZM6.25 7C6.25 6.58579 6.58579 6.25 7 6.25H15C15.4142 6.25 15.75 6.58579 15.75 7C15.75 7.41421 15.4142 7.75 15 7.75H7C6.58579 7.75 6.25 7.41421 6.25 7ZM6.25 11.5C6.25 11.0858 6.58579 10.75 7 10.75H15C15.4142 10.75 15.75 11.0858 15.75 11.5C15.75 11.9142 15.4142 12.25 15 12.25H7C6.58579 12.25 6.25 11.9142 6.25 11.5ZM6.25 16C6.25 15.5858 6.58579 15.25 7 15.25H11C11.4142 15.25 11.75 15.5858 11.75 16C11.75 16.4142 11.4142 16.75 11 16.75H7C6.58579 16.75 6.25 16.4142 6.25 16ZM18.9172 14.2041C18.6784 13.5986 17.8216 13.5986 17.5828 14.2041L17.5414 14.309C16.9582 15.7877 15.7877 16.9582 14.309 17.5414L14.2041 17.5828C13.5986 17.8216 13.5986 18.6784 14.2041 18.9172L14.309 18.9586C15.7877 19.5418 16.9582 20.7123 17.5414 22.191L17.5828 22.2959C17.8216 22.9014 18.6784 22.9014 18.9172 22.2959L18.9586 22.191C19.5418 20.7123 20.7123 19.5418 22.191 18.9586L22.2959 18.9172C22.9014 18.6784 22.9014 17.8216 22.2959 17.5828L22.191 17.5414C20.7123 16.9582 19.5418 15.7877 18.9586 14.309L18.9172 14.2041Z" fill="white"/>
</svg>
