<svg width="24" height="24" viewBox="0 0 24 24" fill="none" xmlns="http://www.w3.org/2000/svg">
<path fill-rule="evenodd" clip-rule="evenodd" d="M10.0053 1.25C9.80666 1.25 9.61613 1.32881 9.47552 1.46912L2.47412 8.45612C2.33314 8.59682 2.25391 8.78782 2.25391 8.987V20.0015C2.25391 21.5203 3.48521 22.7515 5.00391 22.7515H15.418C14.9608 21.5969 13.9003 20.5375 12.7455 20.082C11.0848 19.427 11.0848 17.0769 12.7455 16.4219C13.902 15.9658 14.9638 14.904 15.42 13.7474C16.0749 12.0868 18.4251 12.0868 19.08 13.7474C19.2437 14.1625 19.472 14.5601 19.7508 14.9204V4.00427C19.7532 2.48379 18.5213 1.25 17.0008 1.25H10.0053ZM3.75391 9.29811L10.3155 2.75V8.29811C10.3155 8.8504 9.8678 9.29811 9.31552 9.29811H3.75391ZM17.9172 22.2959C17.6784 22.9014 16.8216 22.9014 16.5828 22.2959L16.5414 22.191C15.9582 20.7123 14.7877 19.5418 13.309 18.9586L13.2041 18.9172C12.5986 18.6784 12.5986 17.8216 13.2041 17.5828L13.309 17.5414C14.7877 16.9582 15.9582 15.7877 16.5414 14.309L16.5828 14.2041C16.8216 13.5986 17.6784 13.5986 17.9172 14.2041L17.9586 14.309C18.5418 15.7877 19.7123 16.9582 21.191 17.5414L21.2959 17.5828C21.9014 17.8216 21.9014 18.6784 21.2959 18.9172L21.191 18.9586C19.7123 19.5418 18.5418 20.7123 17.9586 22.191L17.9172 22.2959Z" fill="white"/>
</svg>
